<?xml version="1.0" encoding="UTF-8" standalone="no"?>
<!DOCTYPE svg PUBLIC "-//W3C//DTD SVG 1.1//EN"
 "http://www.w3.org/Graphics/SVG/1.1/DTD/svg11.dtd">
<!-- Generated by graphviz version 2.40.1 (20161225.0304)
 -->
<!-- Title: hierarchy Pages: 1 -->
<svg width="1635pt" height="1732pt"
 viewBox="0.00 0.00 1635.27 1732.40" xmlns="http://www.w3.org/2000/svg" xmlns:xlink="http://www.w3.org/1999/xlink">
<g id="graph0" class="graph" transform="scale(1 1) rotate(0) translate(4 1728.4)">
<title>hierarchy</title>
<polygon fill="#ffffff" stroke="transparent" points="-4,4 -4,-1728.4 1631.2731,-1728.4 1631.2731,4 -4,4"/>
<!-- 1 -->
<g id="node1" class="node">
<title>1</title>
<polygon fill="#f2f2f2" stroke="#000000" points="726.7746,-475.3 726.7746,-768.1 1025.9428,-768.1 1025.9428,-475.3 726.7746,-475.3"/>
<text text-anchor="middle" x="876.3587" y="-751.5" font-family="Times,serif" font-size="14.00" fill="#000000">KittyPartyAuction</text>
<polyline fill="none" stroke="#000000" points="726.7746,-743.3 1025.9428,-743.3 "/>
<text text-anchor="start" x="734.7746" y="-726.7" font-family="Times,serif" font-size="14.00" fill="#000000">+ bidRefundWithdrawls : mapping(address : uint )</text>
<text text-anchor="start" x="734.7746" y="-709.9" font-family="Times,serif" font-size="14.00" fill="#000000">+ bids : mapping(address : Bid )</text>
<text text-anchor="start" x="734.7746" y="-693.1" font-family="Times,serif" font-size="14.00" fill="#000000">+ numberOfBidders : uint</text>
<text text-anchor="start" x="734.7746" y="-676.3" font-family="Times,serif" font-size="14.00" fill="#000000"># MAX_BID_VALUE : uint</text>
<polyline fill="none" stroke="#000000" points="726.7746,-668.1 1025.9428,-668.1 "/>
<text text-anchor="start" x="734.7746" y="-651.5" font-family="Times,serif" font-size="14.00" fill="#000000">«modifier» hasBid()</text>
<text text-anchor="start" x="734.7746" y="-634.7" font-family="Times,serif" font-size="14.00" fill="#000000">«modifier» hasNotBidAsYet()</text>
<text text-anchor="start" x="734.7746" y="-617.9" font-family="Times,serif" font-size="14.00" fill="#000000">«modifier» nonZeroBid()</text>
<text text-anchor="start" x="734.7746" y="-601.1" font-family="Times,serif" font-size="14.00" fill="#000000">«event» BidReceived(address bidder)</text>
<text text-anchor="start" x="734.7746" y="-584.3" font-family="Times,serif" font-size="14.00" fill="#000000">+ constructor(uint _amount)</text>
<text text-anchor="start" x="734.7746" y="-567.5" font-family="Times,serif" font-size="14.00" fill="#000000">+ receiveBid()</text>
<text text-anchor="start" x="734.7746" y="-550.7" font-family="Times,serif" font-size="14.00" fill="#000000">+ getMyBid() : (uint, bool, bool)</text>
<text text-anchor="start" x="734.7746" y="-533.9" font-family="Times,serif" font-size="14.00" fill="#000000">+ withdrawMyInterest()</text>
<text text-anchor="start" x="734.7746" y="-517.1" font-family="Times,serif" font-size="14.00" fill="#000000"># doWithdrawMyRefund()</text>
<text text-anchor="start" x="734.7746" y="-500.3" font-family="Times,serif" font-size="14.00" fill="#000000"># doGetWinner() : (address)</text>
<text text-anchor="start" x="734.7746" y="-483.5" font-family="Times,serif" font-size="14.00" fill="#000000"># doCycleCompleted()</text>
</g>
<!-- 2 -->
<g id="node17" class="node">
<title>2</title>
<polygon fill="#cfcfcf" stroke="#000000" points="817.4106,-300.7 817.4106,-400.7 935.3068,-400.7 935.3068,-300.7 817.4106,-300.7"/>
<text text-anchor="middle" x="876.3587" y="-384.1" font-family="Times,serif" font-size="14.00" fill="#000000">«struct»</text>
<text text-anchor="middle" x="876.3587" y="-367.3" font-family="Times,serif" font-size="14.00" fill="#000000">Bid</text>
<polyline fill="none" stroke="#000000" points="817.4106,-359.1 935.3068,-359.1 "/>
<text text-anchor="start" x="825.4106" y="-342.5" font-family="Times,serif" font-size="14.00" fill="#000000">amount : uint</text>
<text text-anchor="start" x="825.4106" y="-325.7" font-family="Times,serif" font-size="14.00" fill="#000000">winningBid : bool</text>
<text text-anchor="start" x="825.4106" y="-308.9" font-family="Times,serif" font-size="14.00" fill="#000000">exists : bool</text>
</g>
<!-- 1&#45;&gt;2 -->
<g id="edge14" class="edge">
<title>1&#45;&gt;2</title>
<path fill="none" stroke="#000000" d="M876.3587,-462.9533C876.3587,-440.5621 876.3587,-419.0438 876.3587,-400.9439"/>
<polygon fill="#000000" stroke="#000000" points="876.3588,-463.0958 880.3587,-469.0959 876.3587,-475.0958 872.3587,-469.0958 876.3588,-463.0958"/>
</g>
<!-- 3 -->
<g id="node2" class="node">
<title>3</title>
<polygon fill="#f2f2f2" stroke="#000000" points="926.07,-805.1 926.07,-1333.1 1336.6474,-1333.1 1336.6474,-805.1 926.07,-805.1"/>
<text text-anchor="middle" x="1131.3587" y="-1316.5" font-family="Times,serif" font-size="14.00" fill="#000000">«Abstract»</text>
<text text-anchor="middle" x="1131.3587" y="-1299.7" font-family="Times,serif" font-size="14.00" fill="#000000">KittyPartyBase</text>
<polyline fill="none" stroke="#000000" points="926.07,-1291.5 1336.6474,-1291.5 "/>
<text text-anchor="start" x="934.07" y="-1274.9" font-family="Times,serif" font-size="14.00" fill="#000000">+ amountPerParticipant : uint</text>
<text text-anchor="start" x="934.07" y="-1258.1" font-family="Times,serif" font-size="14.00" fill="#000000">+ currentCycleNumber : uint</text>
<text text-anchor="start" x="934.07" y="-1241.3" font-family="Times,serif" font-size="14.00" fill="#000000"># MAX_PARTICIPANTS : uint</text>
<text text-anchor="start" x="934.07" y="-1224.5" font-family="Times,serif" font-size="14.00" fill="#000000"># MAX_CONTRIBUTION : uint</text>
<text text-anchor="start" x="934.07" y="-1207.7" font-family="Times,serif" font-size="14.00" fill="#000000"># participants : mapping(address : KittyParticipant )</text>
<text text-anchor="start" x="934.07" y="-1190.9" font-family="Times,serif" font-size="14.00" fill="#000000"># participant_addresses : address[]</text>
<text text-anchor="start" x="934.07" y="-1174.1" font-family="Times,serif" font-size="14.00" fill="#000000">+ numberOfParticipants : uint</text>
<polyline fill="none" stroke="#000000" points="926.07,-1165.9 1336.6474,-1165.9 "/>
<text text-anchor="start" x="934.07" y="-1149.3" font-family="Times,serif" font-size="14.00" fill="#000000">«modifier» isAParticipant()</text>
<text text-anchor="start" x="934.07" y="-1132.5" font-family="Times,serif" font-size="14.00" fill="#000000">«modifier» hasContributedInCurrentCycle()</text>
<text text-anchor="start" x="934.07" y="-1115.7" font-family="Times,serif" font-size="14.00" fill="#000000">«modifier» hasNotContributedInCurrentCycle()</text>
<text text-anchor="start" x="934.07" y="-1098.9" font-family="Times,serif" font-size="14.00" fill="#000000">«modifier» hasWonACycle()</text>
<text text-anchor="start" x="934.07" y="-1082.1" font-family="Times,serif" font-size="14.00" fill="#000000">«modifier» hasNotWonACycle()</text>
<text text-anchor="start" x="934.07" y="-1065.3" font-family="Times,serif" font-size="14.00" fill="#000000">«event» ParticipantAdded(address participant)</text>
<text text-anchor="start" x="934.07" y="-1048.5" font-family="Times,serif" font-size="14.00" fill="#000000">«event» WinnerChosenForCycle(address winner, uint cycleNumber)</text>
<text text-anchor="start" x="934.07" y="-1031.7" font-family="Times,serif" font-size="14.00" fill="#000000">«event» KittyFinished()</text>
<text text-anchor="start" x="934.07" y="-1014.9" font-family="Times,serif" font-size="14.00" fill="#000000">+ constructor(uint _amount)</text>
<text text-anchor="start" x="934.07" y="-998.1" font-family="Times,serif" font-size="14.00" fill="#000000">+ «fallback»()</text>
<text text-anchor="start" x="934.07" y="-981.3" font-family="Times,serif" font-size="14.00" fill="#000000">+ addParticipant()</text>
<text text-anchor="start" x="934.07" y="-964.5" font-family="Times,serif" font-size="14.00" fill="#000000">+ closeParticipants()</text>
<text text-anchor="start" x="934.07" y="-947.7" font-family="Times,serif" font-size="14.00" fill="#000000">+ getMyStatus() : (bool, bool, uint, bool)</text>
<text text-anchor="start" x="934.07" y="-930.9" font-family="Times,serif" font-size="14.00" fill="#000000">+ participantAt(uint _index) : (address)</text>
<text text-anchor="start" x="934.07" y="-914.1" font-family="Times,serif" font-size="14.00" fill="#000000">+ withdrawMyRefund()</text>
<text text-anchor="start" x="934.07" y="-897.3" font-family="Times,serif" font-size="14.00" fill="#000000">+ hasEveryoneContributedThisCycle() : (bool)</text>
<text text-anchor="start" x="934.07" y="-880.5" font-family="Times,serif" font-size="14.00" fill="#000000">+ withdrawMyWinnings()</text>
<text text-anchor="start" x="934.07" y="-863.7" font-family="Times,serif" font-size="14.00" fill="#000000">+ completeCycle()</text>
<text text-anchor="start" x="934.07" y="-846.9" font-family="Times,serif" font-size="14.00" fill="#000000"># doGetWinner() : (address)</text>
<text text-anchor="start" x="934.07" y="-830.1" font-family="Times,serif" font-size="14.00" fill="#000000"># doCycleCompleted()</text>
<text text-anchor="start" x="934.07" y="-813.3" font-family="Times,serif" font-size="14.00" fill="#000000"># doWithdrawMyRefund()</text>
</g>
<!-- 3&#45;&gt;1 -->
<g id="edge1" class="edge">
<title>3&#45;&gt;1</title>
<path fill="none" stroke="#000000" d="M975.8263,-796.2169C970.417,-786.7262 965.0785,-777.3598 959.8525,-768.1907"/>
<polygon fill="none" stroke="#000000" points="972.8201,-798.0108 980.8127,-804.9656 978.9017,-794.5445 972.8201,-798.0108"/>
</g>
<!-- 8 -->
<g id="node6" class="node">
<title>8</title>
<polygon fill="#f2f2f2" stroke="#000000" points="1044.2566,-559.3 1044.2566,-684.1 1218.4608,-684.1 1218.4608,-559.3 1044.2566,-559.3"/>
<text text-anchor="middle" x="1131.3587" y="-667.5" font-family="Times,serif" font-size="14.00" fill="#000000">KittyPartySequential</text>
<polyline fill="none" stroke="#000000" points="1044.2566,-659.3 1218.4608,-659.3 "/>
<text text-anchor="start" x="1052.2566" y="-642.7" font-family="Times,serif" font-size="14.00" fill="#000000"># nextWinnerIndex : uint</text>
<polyline fill="none" stroke="#000000" points="1044.2566,-634.5 1218.4608,-634.5 "/>
<text text-anchor="start" x="1052.2566" y="-617.9" font-family="Times,serif" font-size="14.00" fill="#000000">+ constructor(uint _amount)</text>
<text text-anchor="start" x="1052.2566" y="-601.1" font-family="Times,serif" font-size="14.00" fill="#000000"># doGetWinner() : (address)</text>
<text text-anchor="start" x="1052.2566" y="-584.3" font-family="Times,serif" font-size="14.00" fill="#000000"># doCycleCompleted()</text>
<text text-anchor="start" x="1052.2566" y="-567.5" font-family="Times,serif" font-size="14.00" fill="#000000"># doWithdrawMyRefund()</text>
</g>
<!-- 3&#45;&gt;8 -->
<g id="edge8" class="edge">
<title>3&#45;&gt;8</title>
<path fill="none" stroke="#000000" d="M1131.3587,-794.719C1131.3587,-753.4812 1131.3587,-714.6686 1131.3587,-684.2954"/>
<polygon fill="none" stroke="#000000" points="1127.8588,-794.9656 1131.3587,-804.9656 1134.8588,-794.9656 1127.8588,-794.9656"/>
</g>
<!-- 4 -->
<g id="node18" class="node">
<title>4</title>
<polygon fill="#cfcfcf" stroke="#000000" points="1236.9246,-563.3 1236.9246,-680.1 1431.7928,-680.1 1431.7928,-563.3 1236.9246,-563.3"/>
<text text-anchor="middle" x="1334.3587" y="-663.5" font-family="Times,serif" font-size="14.00" fill="#000000">«struct»</text>
<text text-anchor="middle" x="1334.3587" y="-646.7" font-family="Times,serif" font-size="14.00" fill="#000000">KittyParticipant</text>
<polyline fill="none" stroke="#000000" points="1236.9246,-638.5 1431.7928,-638.5 "/>
<text text-anchor="start" x="1244.9246" y="-621.9" font-family="Times,serif" font-size="14.00" fill="#000000">exists : bool</text>
<text text-anchor="start" x="1244.9246" y="-605.1" font-family="Times,serif" font-size="14.00" fill="#000000">hasContributedThisCycle : bool</text>
<text text-anchor="start" x="1244.9246" y="-588.3" font-family="Times,serif" font-size="14.00" fill="#000000">cycleNumberWon : uint</text>
<text text-anchor="start" x="1244.9246" y="-571.5" font-family="Times,serif" font-size="14.00" fill="#000000">hasWithdrawnWinnings : bool</text>
</g>
<!-- 3&#45;&gt;4 -->
<g id="edge15" class="edge">
<title>3&#45;&gt;4</title>
<path fill="none" stroke="#000000" d="M1256.1723,-794.0181C1275.6152,-751.1672 1293.8515,-710.9755 1307.8135,-680.2041"/>
<polygon fill="#000000" stroke="#000000" points="1256.1634,-794.0379 1257.3269,-801.1545 1251.2051,-804.9656 1250.0417,-797.8489 1256.1634,-794.0379"/>
</g>
<!-- 5 -->
<g id="node3" class="node">
<title>5</title>
<polygon fill="#f2f2f2" stroke="#000000" points="1037.6437,-263.1 1037.6437,-438.3 1225.0737,-438.3 1225.0737,-263.1 1037.6437,-263.1"/>
<text text-anchor="middle" x="1131.3587" y="-421.7" font-family="Times,serif" font-size="14.00" fill="#000000">«Abstract»</text>
<text text-anchor="middle" x="1131.3587" y="-404.9" font-family="Times,serif" font-size="14.00" fill="#000000">KittyPartyLotteryBase</text>
<polyline fill="none" stroke="#000000" points="1037.6437,-396.7 1225.0737,-396.7 "/>
<text text-anchor="start" x="1045.6437" y="-380.1" font-family="Times,serif" font-size="14.00" fill="#000000"># hasHappenedOnce : bool</text>
<polyline fill="none" stroke="#000000" points="1037.6437,-371.9 1225.0737,-371.9 "/>
<text text-anchor="start" x="1045.6437" y="-355.3" font-family="Times,serif" font-size="14.00" fill="#000000">+ constructor(uint _amount)</text>
<text text-anchor="start" x="1045.6437" y="-338.5" font-family="Times,serif" font-size="14.00" fill="#000000">«event» InitialLotteryDone()</text>
<text text-anchor="start" x="1045.6437" y="-321.7" font-family="Times,serif" font-size="14.00" fill="#000000"># doGetWinner() : (address)</text>
<text text-anchor="start" x="1045.6437" y="-304.9" font-family="Times,serif" font-size="14.00" fill="#000000">+ initialLottery()</text>
<text text-anchor="start" x="1045.6437" y="-288.1" font-family="Times,serif" font-size="14.00" fill="#000000"># doGetWinnerIndex() : (uint)</text>
<text text-anchor="start" x="1045.6437" y="-271.3" font-family="Times,serif" font-size="14.00" fill="#000000"># doInitialLottery()</text>
</g>
<!-- 6 -->
<g id="node4" class="node">
<title>6</title>
<polygon fill="#f2f2f2" stroke="#000000" points="679.5837,-17.3 679.5837,-209.3 973.1337,-209.3 973.1337,-17.3 679.5837,-17.3"/>
<text text-anchor="middle" x="826.3587" y="-192.7" font-family="Times,serif" font-size="14.00" fill="#000000">KittyPartyLotteryOraclize</text>
<polyline fill="none" stroke="#000000" points="679.5837,-184.5 973.1337,-184.5 "/>
<text text-anchor="start" x="687.5837" y="-167.9" font-family="Times,serif" font-size="14.00" fill="#000000">+ randomlySelectedWinners : uint[]</text>
<polyline fill="none" stroke="#000000" points="679.5837,-159.7 973.1337,-159.7 "/>
<text text-anchor="start" x="687.5837" y="-143.1" font-family="Times,serif" font-size="14.00" fill="#000000">«event» OraclizeResponseReceived(bytes32 id)</text>
<text text-anchor="start" x="687.5837" y="-126.3" font-family="Times,serif" font-size="14.00" fill="#000000">+ constructor(uint _amount)</text>
<text text-anchor="start" x="687.5837" y="-109.5" font-family="Times,serif" font-size="14.00" fill="#000000">+ winnerAt(uint _index) : (address)</text>
<text text-anchor="start" x="687.5837" y="-92.7" font-family="Times,serif" font-size="14.00" fill="#000000">+ orderOfWinnersLength() : (uint)</text>
<text text-anchor="start" x="687.5837" y="-75.9" font-family="Times,serif" font-size="14.00" fill="#000000"># doGetWinnerIndex() : (uint)</text>
<text text-anchor="start" x="687.5837" y="-59.1" font-family="Times,serif" font-size="14.00" fill="#000000"># doInitialLottery()</text>
<text text-anchor="start" x="687.5837" y="-42.3" font-family="Times,serif" font-size="14.00" fill="#000000"># doWithdrawMyRefund()</text>
<text text-anchor="start" x="687.5837" y="-25.5" font-family="Times,serif" font-size="14.00" fill="#000000"># doAddUniqueIndexValue(uint _value)</text>
</g>
<!-- 5&#45;&gt;6 -->
<g id="edge6" class="edge">
<title>5&#45;&gt;6</title>
<path fill="none" stroke="#000000" d="M1029.1755,-271.1646C1003.7267,-251.3563 976.1725,-229.9092 949.8197,-209.3972"/>
<polygon fill="none" stroke="#000000" points="1027.3188,-274.1547 1037.3599,-277.5351 1031.6184,-268.6308 1027.3188,-274.1547"/>
</g>
<!-- 7 -->
<g id="node5" class="node">
<title>7</title>
<polygon fill="#f2f2f2" stroke="#000000" points="990.8096,-.5 990.8096,-226.1 1387.9078,-226.1 1387.9078,-.5 990.8096,-.5"/>
<text text-anchor="middle" x="1189.3587" y="-209.5" font-family="Times,serif" font-size="14.00" fill="#000000">KittyPartyLotteryUpgradable</text>
<polyline fill="none" stroke="#000000" points="990.8096,-201.3 1387.9078,-201.3 "/>
<text text-anchor="start" x="998.8096" y="-184.7" font-family="Times,serif" font-size="14.00" fill="#000000">+ upgradableRandomizerAddress : address</text>
<text text-anchor="start" x="998.8096" y="-167.9" font-family="Times,serif" font-size="14.00" fill="#000000">+ externalStorageAddress : address</text>
<polyline fill="none" stroke="#000000" points="990.8096,-159.7 1387.9078,-159.7 "/>
<text text-anchor="start" x="998.8096" y="-143.1" font-family="Times,serif" font-size="14.00" fill="#000000">+ constructor(uint _amount, address _randomizer, address _storage)</text>
<text text-anchor="start" x="998.8096" y="-126.3" font-family="Times,serif" font-size="14.00" fill="#000000">+ getTypeOfRandomizer() : (string)</text>
<text text-anchor="start" x="998.8096" y="-109.5" font-family="Times,serif" font-size="14.00" fill="#000000">+ updateRandomizer(address _randomizer)</text>
<text text-anchor="start" x="998.8096" y="-92.7" font-family="Times,serif" font-size="14.00" fill="#000000">+ enumerateOrderOfWinners() : (uint[])</text>
<text text-anchor="start" x="998.8096" y="-75.9" font-family="Times,serif" font-size="14.00" fill="#000000">+ orderOfWinnersLength() : (uint)</text>
<text text-anchor="start" x="998.8096" y="-59.1" font-family="Times,serif" font-size="14.00" fill="#000000">+ winnerAt(uint _index) : (address)</text>
<text text-anchor="start" x="998.8096" y="-42.3" font-family="Times,serif" font-size="14.00" fill="#000000"># doGetWinnerIndex() : (uint)</text>
<text text-anchor="start" x="998.8096" y="-25.5" font-family="Times,serif" font-size="14.00" fill="#000000"># doInitialLottery()</text>
<text text-anchor="start" x="998.8096" y="-8.7" font-family="Times,serif" font-size="14.00" fill="#000000"># doWithdrawMyRefund()</text>
</g>
<!-- 5&#45;&gt;7 -->
<g id="edge7" class="edge">
<title>5&#45;&gt;7</title>
<path fill="none" stroke="#000000" d="M1155.1952,-253.1348C1157.3416,-244.3492 1159.5271,-235.404 1161.7024,-226.5002"/>
<polygon fill="none" stroke="#000000" points="1151.7644,-252.4305 1152.791,-262.9755 1158.5644,-254.0919 1151.7644,-252.4305"/>
</g>
<!-- 8&#45;&gt;5 -->
<g id="edge4" class="edge">
<title>8&#45;&gt;5</title>
<path fill="none" stroke="#000000" d="M1131.3587,-548.8539C1131.3587,-514.8167 1131.3587,-474.0159 1131.3587,-438.3077"/>
<polygon fill="none" stroke="#000000" points="1127.8588,-549.1868 1131.3587,-559.1869 1134.8588,-549.1869 1127.8588,-549.1868"/>
</g>
<!-- 9 -->
<g id="node7" class="node">
<title>9</title>
<polygon fill="#f2f2f2" stroke="#000000" points="863.7776,-1370.1 863.7776,-1578.9 1128.9398,-1578.9 1128.9398,-1370.1 863.7776,-1370.1"/>
<text text-anchor="middle" x="996.3587" y="-1562.3" font-family="Times,serif" font-size="14.00" fill="#000000">CircuitBreaker</text>
<polyline fill="none" stroke="#000000" points="863.7776,-1554.1 1128.9398,-1554.1 "/>
<text text-anchor="start" x="871.7776" y="-1537.5" font-family="Times,serif" font-size="14.00" fill="#000000">&#45; circuitBreakerState : CircuitBreakerState</text>
<polyline fill="none" stroke="#000000" points="863.7776,-1529.3 1128.9398,-1529.3 "/>
<text text-anchor="start" x="871.7776" y="-1512.7" font-family="Times,serif" font-size="14.00" fill="#000000">«modifier» notInEmergency()</text>
<text text-anchor="start" x="871.7776" y="-1495.9" font-family="Times,serif" font-size="14.00" fill="#000000">«modifier» inEmergency()</text>
<text text-anchor="start" x="871.7776" y="-1479.1" font-family="Times,serif" font-size="14.00" fill="#000000">«modifier» inRedAlert()</text>
<text text-anchor="start" x="871.7776" y="-1462.3" font-family="Times,serif" font-size="14.00" fill="#000000">«event» CircuitBreakerEmergency()</text>
<text text-anchor="start" x="871.7776" y="-1445.5" font-family="Times,serif" font-size="14.00" fill="#000000">«event» CircuitBreakerInRedAlert()</text>
<text text-anchor="start" x="871.7776" y="-1428.7" font-family="Times,serif" font-size="14.00" fill="#000000">«event» CircuitBreakerEmergencyEnded()</text>
<text text-anchor="start" x="871.7776" y="-1411.9" font-family="Times,serif" font-size="14.00" fill="#000000">+ setCirctuitBreakerToRedAlert()</text>
<text text-anchor="start" x="871.7776" y="-1395.1" font-family="Times,serif" font-size="14.00" fill="#000000">+ setCircuitBreakerEmergencyFinished()</text>
<text text-anchor="start" x="871.7776" y="-1378.3" font-family="Times,serif" font-size="14.00" fill="#000000">+ setCircuitBreakerToStopped()</text>
</g>
<!-- 9&#45;&gt;3 -->
<g id="edge2" class="edge">
<title>9&#45;&gt;3</title>
<path fill="none" stroke="#000000" d="M1034.3706,-1360.3516C1037.2813,-1351.6109 1040.2831,-1342.5967 1043.3472,-1333.3954"/>
<polygon fill="none" stroke="#000000" points="1030.9634,-1359.5058 1031.1246,-1370.0994 1037.6048,-1361.7175 1030.9634,-1359.5058"/>
</g>
<!-- 10 -->
<g id="node8" class="node">
<title>10</title>
<polygon fill="#f2f2f2" stroke="#000000" points="1403.7336,-1395.3 1403.7336,-1553.7 1602.9838,-1553.7 1602.9838,-1395.3 1403.7336,-1395.3"/>
<text text-anchor="middle" x="1503.3587" y="-1537.1" font-family="Times,serif" font-size="14.00" fill="#000000">ExternalUintArrayStorage</text>
<polyline fill="none" stroke="#000000" points="1403.7336,-1528.9 1602.9838,-1528.9 "/>
<text text-anchor="start" x="1411.7336" y="-1512.3" font-family="Times,serif" font-size="14.00" fill="#000000"># uintArray : uint[]</text>
<polyline fill="none" stroke="#000000" points="1403.7336,-1504.1 1602.9838,-1504.1 "/>
<text text-anchor="start" x="1411.7336" y="-1487.5" font-family="Times,serif" font-size="14.00" fill="#000000">+ getArray() : (uint[] array_)</text>
<text text-anchor="start" x="1411.7336" y="-1470.7" font-family="Times,serif" font-size="14.00" fill="#000000">+ setFromArray(uint[] _array)</text>
<text text-anchor="start" x="1411.7336" y="-1453.9" font-family="Times,serif" font-size="14.00" fill="#000000">+ add(uint _value)</text>
<text text-anchor="start" x="1411.7336" y="-1437.1" font-family="Times,serif" font-size="14.00" fill="#000000">+ setAt(uint _index, uint _value)</text>
<text text-anchor="start" x="1411.7336" y="-1420.3" font-family="Times,serif" font-size="14.00" fill="#000000">+ getAt(uint _index) : (uint)</text>
<text text-anchor="start" x="1411.7336" y="-1403.5" font-family="Times,serif" font-size="14.00" fill="#000000">+ getLength() : (uint)</text>
</g>
<!-- 11 -->
<g id="node9" class="node">
<title>11</title>
<polygon fill="#f2f2f2" stroke="#000000" points="1146.7829,-1403.7 1146.7829,-1545.3 1385.9345,-1545.3 1385.9345,-1403.7 1146.7829,-1403.7"/>
<text text-anchor="middle" x="1266.3587" y="-1528.7" font-family="Times,serif" font-size="14.00" fill="#000000">ProgressInThreeStages</text>
<polyline fill="none" stroke="#000000" points="1146.7829,-1520.5 1385.9345,-1520.5 "/>
<text text-anchor="start" x="1154.7829" y="-1503.9" font-family="Times,serif" font-size="14.00" fill="#000000"># stage : Stages</text>
<polyline fill="none" stroke="#000000" points="1146.7829,-1495.7 1385.9345,-1495.7 "/>
<text text-anchor="start" x="1154.7829" y="-1479.1" font-family="Times,serif" font-size="14.00" fill="#000000">«modifier» atStage(Stages _stage)</text>
<text text-anchor="start" x="1154.7829" y="-1462.3" font-family="Times,serif" font-size="14.00" fill="#000000">«modifier» notAtStage(Stages _stage)</text>
<text text-anchor="start" x="1154.7829" y="-1445.5" font-family="Times,serif" font-size="14.00" fill="#000000">+ constructor()</text>
<text text-anchor="start" x="1154.7829" y="-1428.7" font-family="Times,serif" font-size="14.00" fill="#000000">+ getStage() : (uint)</text>
<text text-anchor="start" x="1154.7829" y="-1411.9" font-family="Times,serif" font-size="14.00" fill="#000000"># nextStage()</text>
</g>
<!-- 11&#45;&gt;3 -->
<g id="edge3" class="edge">
<title>11&#45;&gt;3</title>
<path fill="none" stroke="#000000" d="M1239.4535,-1393.7046C1233.3207,-1375.2882 1226.4767,-1354.7358 1219.2916,-1333.1593"/>
<polygon fill="none" stroke="#000000" points="1236.2088,-1395.0389 1242.689,-1403.4208 1242.8502,-1392.8272 1236.2088,-1395.0389"/>
</g>
<!-- 12 -->
<g id="node10" class="node">
<title>12</title>
<polygon fill="#f2f2f2" stroke="#000000" points="893.3225,-1615.9 893.3225,-1723.9 1099.3949,-1723.9 1099.3949,-1615.9 893.3225,-1615.9"/>
<text text-anchor="middle" x="996.3587" y="-1707.3" font-family="Times,serif" font-size="14.00" fill="#000000">RestrictableToOwner</text>
<polyline fill="none" stroke="#000000" points="893.3225,-1699.1 1099.3949,-1699.1 "/>
<text text-anchor="start" x="901.3225" y="-1682.5" font-family="Times,serif" font-size="14.00" fill="#000000">&#45; _owner : address</text>
<polyline fill="none" stroke="#000000" points="893.3225,-1674.3 1099.3949,-1674.3 "/>
<text text-anchor="start" x="901.3225" y="-1657.7" font-family="Times,serif" font-size="14.00" fill="#000000">«modifier» restrictedToOwner()</text>
<text text-anchor="start" x="901.3225" y="-1640.9" font-family="Times,serif" font-size="14.00" fill="#000000">+ constructor()</text>
<text text-anchor="start" x="901.3225" y="-1624.1" font-family="Times,serif" font-size="14.00" fill="#000000">+ owner() : (address)</text>
</g>
<!-- 12&#45;&gt;9 -->
<g id="edge9" class="edge">
<title>12&#45;&gt;9</title>
<path fill="none" stroke="#000000" d="M996.3587,-1605.5058C996.3587,-1596.9495 996.3587,-1588.0062 996.3587,-1578.9853"/>
<polygon fill="none" stroke="#000000" points="992.8588,-1605.7297 996.3587,-1615.7297 999.8588,-1605.7297 992.8588,-1605.7297"/>
</g>
<!-- 13 -->
<g id="node11" class="node">
<title>13</title>
<polygon fill="#f2f2f2" stroke="#000000" points="1379.4443,-1619.9 1379.4443,-1719.9 1627.2731,-1719.9 1627.2731,-1619.9 1379.4443,-1619.9"/>
<text text-anchor="middle" x="1503.3587" y="-1703.3" font-family="Times,serif" font-size="14.00" fill="#000000">«Library»</text>
<text text-anchor="middle" x="1503.3587" y="-1686.5" font-family="Times,serif" font-size="14.00" fill="#000000">SafeArrayLib</text>
<polyline fill="none" stroke="#000000" points="1379.4443,-1678.3 1627.2731,-1678.3 "/>
<text text-anchor="start" x="1387.4443" y="-1661.7" font-family="Times,serif" font-size="14.00" fill="#000000">+ addTo(uint[] self, uint value)</text>
<text text-anchor="start" x="1387.4443" y="-1644.9" font-family="Times,serif" font-size="14.00" fill="#000000">+ getAt(uint[] self, uint offset) : (uint)</text>
<text text-anchor="start" x="1387.4443" y="-1628.1" font-family="Times,serif" font-size="14.00" fill="#000000">+ setAt(uint[] self, uint offset, uint value)</text>
</g>
<!-- 13&#45;&gt;10 -->
<g id="edge16" class="edge">
<title>13&#45;&gt;10</title>
<path fill="none" stroke="#000000" d="M1503.3587,-1609.7189C1503.3587,-1592.1285 1503.3587,-1572.6248 1503.3587,-1554.0311"/>
<polygon fill="#000000" stroke="#000000" points="1503.3587,-1619.8334 1498.8588,-1609.8333 1503.3587,-1614.8334 1503.3588,-1609.8334 1503.3588,-1609.8334 1503.3588,-1609.8334 1503.3587,-1614.8334 1507.8588,-1609.8334 1503.3587,-1619.8334 1503.3587,-1619.8334"/>
</g>
<!-- 14 -->
<g id="node12" class="node">
<title>14</title>
<polygon fill="#f2f2f2" stroke="#000000" points="0,-80.1 0,-146.5 298.7174,-146.5 298.7174,-80.1 0,-80.1"/>
<text text-anchor="middle" x="149.3587" y="-129.9" font-family="Times,serif" font-size="14.00" fill="#000000">BlockRandomizer</text>
<polyline fill="none" stroke="#000000" points="0,-121.7 298.7174,-121.7 "/>
<text text-anchor="start" x="8" y="-105.1" font-family="Times,serif" font-size="14.00" fill="#000000">+ randomize(uint rangeEnd, address arrayStorage)</text>
<text text-anchor="start" x="8" y="-88.3" font-family="Times,serif" font-size="14.00" fill="#000000">+ getRandomizerName() : (string)</text>
</g>
<!-- 15 -->
<g id="node13" class="node">
<title>15</title>
<polygon fill="#f2f2f2" stroke="#000000" points="82,-309.1 82,-392.3 380.7174,-392.3 380.7174,-309.1 82,-309.1"/>
<text text-anchor="middle" x="231.3587" y="-375.7" font-family="Times,serif" font-size="14.00" fill="#000000">«Interface»</text>
<text text-anchor="middle" x="231.3587" y="-358.9" font-family="Times,serif" font-size="14.00" fill="#000000">IRandomizeRangeToArray</text>
<polyline fill="none" stroke="#000000" points="82,-350.7 380.7174,-350.7 "/>
<text text-anchor="start" x="90" y="-334.1" font-family="Times,serif" font-size="14.00" fill="#000000">+ randomize(uint rangeEnd, address arrayStorage)</text>
<text text-anchor="start" x="90" y="-317.3" font-family="Times,serif" font-size="14.00" fill="#000000">+ getRandomizerName() : (string)</text>
</g>
<!-- 15&#45;&gt;14 -->
<g id="edge10" class="edge">
<title>15&#45;&gt;14</title>
<path fill="none" stroke="#000000" d="M213.6871,-299.5386C197.7174,-253.3044 174.6709,-186.582 160.9352,-146.8155"/>
<polygon fill="none" stroke="#000000" points="210.4085,-300.7671 216.9816,-309.0764 217.0249,-298.4817 210.4085,-300.7671"/>
</g>
<!-- 16 -->
<g id="node14" class="node">
<title>16</title>
<polygon fill="#f2f2f2" stroke="#000000" points="317.0582,-50.9 317.0582,-175.7 661.6592,-175.7 661.6592,-50.9 317.0582,-50.9"/>
<text text-anchor="middle" x="489.3587" y="-159.1" font-family="Times,serif" font-size="14.00" fill="#000000">OraclizeRandomizer</text>
<polyline fill="none" stroke="#000000" points="317.0582,-150.9 661.6592,-150.9 "/>
<text text-anchor="start" x="325.0582" y="-134.3" font-family="Times,serif" font-size="14.00" fill="#000000"># storageLocationAddress : address</text>
<polyline fill="none" stroke="#000000" points="317.0582,-126.1 661.6592,-126.1 "/>
<text text-anchor="start" x="325.0582" y="-109.5" font-family="Times,serif" font-size="14.00" fill="#000000">+ constructor(address _storage)</text>
<text text-anchor="start" x="325.0582" y="-92.7" font-family="Times,serif" font-size="14.00" fill="#000000">+ randomize(uint numberToSelect, address _arrayStorage)</text>
<text text-anchor="start" x="325.0582" y="-75.9" font-family="Times,serif" font-size="14.00" fill="#000000">+ getRandomizerName() : (string)</text>
<text text-anchor="start" x="325.0582" y="-59.1" font-family="Times,serif" font-size="14.00" fill="#000000"># doAddUniqueIndexValue(uint _value)</text>
</g>
<!-- 15&#45;&gt;16 -->
<g id="edge12" class="edge">
<title>15&#45;&gt;16</title>
<path fill="none" stroke="#000000" d="M284.3143,-301.9726C323.9478,-265.5037 378.475,-215.3302 421.337,-175.8905"/>
<polygon fill="none" stroke="#000000" points="281.5829,-299.7296 276.5941,-309.0764 286.3228,-304.8808 281.5829,-299.7296"/>
</g>
<!-- 17 -->
<g id="node15" class="node">
<title>17</title>
<polygon fill="#f2f2f2" stroke="#000000" points="421.478,-271.5 421.478,-429.9 673.2394,-429.9 673.2394,-271.5 421.478,-271.5"/>
<text text-anchor="middle" x="547.3587" y="-413.3" font-family="Times,serif" font-size="14.00" fill="#000000">«Abstract»</text>
<text text-anchor="middle" x="547.3587" y="-396.5" font-family="Times,serif" font-size="14.00" fill="#000000">RandomIndicesOraclizeBase</text>
<polyline fill="none" stroke="#000000" points="421.478,-388.3 673.2394,-388.3 "/>
<text text-anchor="start" x="429.478" y="-371.7" font-family="Times,serif" font-size="14.00" fill="#000000">+ uniqueUintsMap : mapping(uint : bool )</text>
<text text-anchor="start" x="429.478" y="-354.9" font-family="Times,serif" font-size="14.00" fill="#000000"># validIds : mapping(bytes32 : bool )</text>
<polyline fill="none" stroke="#000000" points="421.478,-346.7 673.2394,-346.7 "/>
<text text-anchor="start" x="429.478" y="-330.1" font-family="Times,serif" font-size="14.00" fill="#000000">«event» OraclizeResponseReceived()</text>
<text text-anchor="start" x="429.478" y="-313.3" font-family="Times,serif" font-size="14.00" fill="#000000">+ __callback(bytes32 myid, string result)</text>
<text text-anchor="start" x="429.478" y="-296.5" font-family="Times,serif" font-size="14.00" fill="#000000"># initiateOraclizeQuery(uint arrayLength)</text>
<text text-anchor="start" x="429.478" y="-279.7" font-family="Times,serif" font-size="14.00" fill="#000000"># doAddUniqueIndexValue(uint _value)</text>
</g>
<!-- 17&#45;&gt;6 -->
<g id="edge5" class="edge">
<title>17&#45;&gt;6</title>
<path fill="none" stroke="#000000" d="M648.356,-264.7618C669.4407,-246.8209 691.7986,-227.7966 713.288,-209.5114"/>
<polygon fill="none" stroke="#000000" points="645.9974,-262.1731 640.6496,-271.3192 650.5338,-267.5043 645.9974,-262.1731"/>
</g>
<!-- 17&#45;&gt;16 -->
<g id="edge11" class="edge">
<title>17&#45;&gt;16</title>
<path fill="none" stroke="#000000" d="M525.5276,-261.3431C518.5595,-232.8218 511.0022,-201.8889 504.6063,-175.7098"/>
<polygon fill="none" stroke="#000000" points="522.1915,-262.4356 527.9649,-271.3192 528.9915,-260.7742 522.1915,-262.4356"/>
</g>
<!-- 18 -->
<g id="node16" class="node">
<title>18</title>
<polygon fill="#f2f2f2" stroke="#000000" points="500.4877,-603.7 500.4877,-639.7 594.2297,-639.7 594.2297,-603.7 500.4877,-603.7"/>
<text text-anchor="middle" x="547.3587" y="-617.6" font-family="Times,serif" font-size="14.00" fill="#000000">usingOraclize</text>
</g>
<!-- 18&#45;&gt;17 -->
<g id="edge13" class="edge">
<title>18&#45;&gt;17</title>
<path fill="none" stroke="#000000" d="M547.3587,-593.0903C547.3587,-554.7053 547.3587,-485.0196 547.3587,-430.1864"/>
<polygon fill="none" stroke="#000000" points="543.8588,-593.4981 547.3587,-603.4981 550.8588,-593.4982 543.8588,-593.4981"/>
</g>
</g>
</svg>
